# xmcd
#
# Track frame offsets: 
#        150
#        18488
#        40108
#        62330
#        81947
#        100307
#        117323
#        139630
#        158838
#        185833
#        208091
#        231251
#        252630
#
# Disc length: 3708 seconds
#
# Revision: 7
# Processed by: cddbd v1.5.2PL0 Copyright (c) Steve Scherf et al.
# Submitted via: ExactAudioCopy v1.1
#
DISCID=b50e7a0d
DTITLE=Girls Dead Monster - Keep The Beats!
DYEAR=2010
DGENRE=JPop
TTITLE0=Crow Song (Yui version)
TTITLE1=Thousand Enemies
TTITLE2=Shine days
TTITLE3=23:50
TTITLE4=Run with wolves
TTITLE5=Morning dreamer
TTITLE6=Rain song
TTITLE7=Alchemy (Yui version)
TTITLE8=????? (Yui version)
TTITLE9=Little braver (Album version)
TTITLE10=My song (Yui version)
TTITLE11=My soul, Your beats! (Gldemo version)
TTITLE12=Brave song (Gldemo version)
EXTD=YEAR: 2010
EXTT0=
EXTT1=
EXTT2=
EXTT3=
EXTT4=
EXTT5=
EXTT6=
EXTT7=
EXTT8=
EXTT9=
EXTT10=
EXTT11=
EXTT12=
PLAYORDER=
